<?xml version="1.0" encoding="UTF-8"?>
<svg version="1.0" viewBox="0 0 725 801.92" xmlns="http://www.w3.org/2000/svg">
 <g transform="translate(-11.538 -140.82)">
  <rect x="11.538" y="140.82" width="725" height="801.92" fill="#e6f2b5" fill-rule="evenodd"/>
  <path d="m143.84 326.8l-91.318-21.86 160.06-29.61 49.02 18.33-117.76 33.14z" fill="#8d9094" fill-rule="evenodd" stroke="#000" stroke-linecap="round" stroke-linejoin="round" stroke-width="3"/>
  <path d="m260.89 507.31l-121.28 62.05 4.23-242.56 117.76-33.14-0.71 213.65z" fill="#636b75" fill-rule="evenodd" stroke="#000" stroke-linecap="round" stroke-linejoin="round" stroke-width="3"/>
  <path d="m617.68 697.69l16.22-4.94h26.79l20.45-11.98s12.69-3.53-1.41-9.17-36.67-18.33-36.67-18.33-35.96-4.23-39.48-4.94c-3.53-0.7-27.5-11.28-27.5-11.28s-20.59-1.63-20.59-10.1c0-8.46 18.47-4 18.47-4l11.28 0.7 31.73-3.52 21.16 9.16s17.63 2.12 20.45-0.7 7.75-0.71 6.34-9.87c-1.41-9.17-3.52-19.04-4.93-22.57-1.41-3.52-18.73-10.3-18.73-10.3s-53.63 1.83-62.09 1.83-34.19-17.65-34.19-17.65l-95.97-10.13" fill="none" stroke="#000" stroke-linecap="round" stroke-linejoin="round" stroke-width="3"/>
  <path d="m190.38 510.13l452.68 62.05 63.46-333.52-492.87-33.14-23.27 304.61z" fill="#5c5959" fill-rule="evenodd" stroke="#000" stroke-linecap="round" stroke-linejoin="round" stroke-width="3"/>
  <path d="m235.51 241.48l-16.92 242.56 401.91 57.82 54.29-279.93-439.28-20.45z" fill="#6e9bde" fill-rule="evenodd" stroke="#000" stroke-width="3"/>
  <path d="m463.26 541.15c1.18 8.47 2.35 16.93 3.53 25.39 11.12 3.17 22.41 6.01 33.43 9.39 6.29 4.76 12.82 9.28 18.95 14.19 3.69 5.53 7.38 11.07 11.08 16.61-0.71 5.41-1.41 10.81-2.12 16.22-5.78 3.22-11.43 6.96-17.29 9.86-17.28-0.31-34.58-0.31-51.84-0.82-28.43-4.9-56.86-9.79-85.29-14.68 0.28-22.47 0.04-45.03 2.54-67.39-0.46-8.88 10.55-4.94 15.95-6.44 23.33-1.18 46.67-2.21 70.03-2.42l1.03 0.09z" fill="#acacac" fill-rule="evenodd" stroke="#000" stroke-linecap="round" stroke-linejoin="round" stroke-width="3"/>
  <path d="m74.742 762.56l4.231 28.2 244.68 121.99 71.92-117.05-3.7-30.85-69.63 85.85-235.51-87.43-11.988-0.71z" fill="#888c92" fill-rule="evenodd" stroke="#000" stroke-linecap="round" stroke-linejoin="round" stroke-width="3"/>
  <path d="m155.83 681.47l-81.793 83.21 247.11 124.1 71.07-126.07-236.39-81.24z" fill="#989b9f" fill-rule="evenodd" stroke="#000" stroke-linecap="round" stroke-linejoin="round" stroke-width="3"/>
  <path d="m161.47 694.87l-62.049 65.57 213.65 98.02 52.18-80.39-203.78-83.2z" fill="#c7cacd" fill-rule="evenodd" stroke="#000" stroke-width="3"/>
  <path d="m137.27 747.79l172.67 75.07" fill="none" stroke="#000" stroke-linecap="round" stroke-linejoin="round" stroke-width="3"/>
  <path d="m169.45 742.42l-17.16 34.32 32.71 13.41 12.87-35.39 38.07 18.23-19.3 32.17 38.6 16.63 13.95-33.25 26.81 10.19-15.02 34.85" fill="none" stroke="#000" stroke-linecap="round" stroke-linejoin="round" stroke-width="3"/>
  <path d="m148.53 733.31l-21.98 30.56 174.81 79.9 15.01-34.85-167.84-75.61z" fill="none" stroke="#000" stroke-linecap="round" stroke-linejoin="round" stroke-width="3"/>
  <path d="m163.01 712.93l-7.5 9.12 27.34 13.94 4.83-11.8-24.67-11.26z" fill="none" stroke="#000" stroke-linecap="round" stroke-linejoin="round" stroke-width="3"/>
  <path d="m284.74 765.48l-7.51 17.16 21.98 9.65 10.19-19.84-24.66-6.97z" fill="none" stroke="#000" stroke-linecap="round" stroke-linejoin="round" stroke-width="3"/>
  <path d="m212.88 736.53l-9.11 15.01 67.02 28.96 7.51-16.09-65.42-27.88z" fill="none" stroke="#000" stroke-linecap="round" stroke-linejoin="round" stroke-width="3"/>
  <path d="m338.45 576.41l-15.51 31.73-45.13-20.45-79.67 107.88s-25.39 33.14-28.91 33.14c-3.53 0-38.78 19.75-38.78 19.75l0.7 2.11 3.53 2.12 19.03-5.64-16.21 19.74 1.41 4.94 3.52 4.93 14.11-18.33 3.52-3.53 2.12 13.4 1.41 5.64 8.46-4.93 2.82-14.81h15.51l14.1 7.76 2.82-0.71 2.82-3.53-0.7-4.23-13.4-13.39 64.17-92.37 17.62-38.08 43.02 22.56-23.98 64.17s64.87-21.15 68.4-20.45c3.52 0.71 50.06-32.43 50.06-32.43l-17.63 50.76-40.19 33.14-31.73 35.97-8.46 14.8-7.05-0.7-14.1-4.23h-9.17l-0.7 6.34 17.62 6.35-19.03 14.81-0.71 4.23 0.71 2.82 2.11 0.7 21.15-9.16-8.46 26.79 2.12 7.76h4.93l17.63-12.7 3.53-13.39 7.75 19.04h5.65l4.23-2.82 3.52-3.53-4.93-16.92-7.06-9.17 2.12-7.76 62.05-71.21 62.05-77.56-37.99-36.95-13.6-15.58-25.27-3.88 2.12-31.03-47.24 19.74-2.83 6.35z" fill="#f7e8cd" fill-rule="evenodd" stroke="#000" stroke-linecap="round" stroke-linejoin="round" stroke-width="3"/>
  <path d="m333.48 587.67l-33.81-9.85s-9.87-2.82-18.33 0-20.45 3.53-20.45 3.53-8.46 23.97-12.69 29.61-35.96 59.23-35.96 59.23l-8.46 10.58 31.73 16.92 41.6-60.64 10.58-10.58s8.46-6.34 4.93 1.41c-3.52 7.76-11.98 34.55-11.98 34.55s-4.24 8.47-6.35 12.7c-2.12 4.23-2.82 15.51-2.82 15.51l-13.16 26.04 71.72 28.05 9.32 3.54 24.49-25.9 4.93-6.35 25.39 25.39 61.34-57.12 18.34-23.97 11.98-22.56-5.64-27.5-7.75-9.88-41.61-11.98-22.56-3.53-40.9 47.24-7.05 9.88-8.46 2.82-4.93-4.94-6.35-17.63-7.09-34.57z" fill="#8ed3a8" fill-rule="evenodd" stroke="#000" stroke-linecap="round" stroke-linejoin="round" stroke-width="3"/>
  <path d="m303.2 338.08l-50.06 103.65s-16.93 40.9-16.22 43.72c0.7 2.82 7.05 33.85 7.05 33.85l14.81 23.26 19.74 14.81 39.49 20.45h26.09l33.14-4.23 55.7-11.99 39.49-15.51 16.92-9.87 11.99-21.86 1.41-15.51 4.93-3.53s6.35-0.7 11.28-4.93c4.94-4.23 10.58-11.29 10.58-11.29l4.94-9.16 2.82-10.58s1.41-4.23 1.41-7.05v-11.99l-4.94-5.64-10.58-3.52-8.46 2.82-7.75 6.34-6.35 2.82-4.93-1.41 7.75-67.69-25.38-54.29-117.76 5.64-57.11 12.69z" fill="#f7e8cd" fill-rule="evenodd" stroke="#000" stroke-linecap="round" stroke-linejoin="round" stroke-width="3"/>
  <path d="m206.6 248.53l14.1 8.46 27.5 4.94 35.26-4.23 67.86-19.62 59.09 4.76 22.53 13.45 17.63 14.81 25.38 14.8s6.35 4.94 15.51 6.35c9.17 1.41 26.09 9.17 26.09 9.17l16.93 16.92s2.11-3.53 5.64 7.05c3.52 10.58 7.75 13.4 8.46 20.45 0.7 7.05 2.82 13.4 2.82 13.4s1.41 11.98 0.7 15.51c-0.7 3.52-7.75 33.14-7.75 33.14l-10.58 21.15-11.28 7.05-29.62 10.58-2.11-34.55-9.87-45.83s4.23 1.41-2.82-4.94-9.87-8.46-9.87-8.46-0.71-5.64-3.53-4.23-4.23-0.71-11.99 2.82c-7.75 3.52 11.29-7.05-11.28 3.52-22.56 10.58-18.33 7.76-26.79 11.99s-15.52 4.94-20.45 7.76c-4.94 2.82-2.12 2.82-14.81 5.64s2.12 0-14.81 3.52c-16.92 3.53-23.97 3.53-27.5 3.53-3.52 0-2.11-2.12-12.69 0.7-10.57 2.83-14.1 2.83-16.92 2.83s-13.4-2.12-20.45-1.42c-7.05 0.71-9.17 1.42-15.51 0.71-6.35-0.71-10.58-7.05-16.22-7.05s-7.75-5.64-14.81-5.64c-7.05 0-14.1-3.53-19.03-7.05-4.94-3.53-9.17-8.46-9.17-8.46l-7.76-8.47-2.82-7.05 31.03-2.82-43.72-35.96 9.17-4.23s46.53-1.41 43.71-1.41-37.37-7.05-37.37-7.05 31.73-6.35 26.09-6.35-41.6-11.98-41.6-11.98 46.54-1.41 43.72-1.41-35.96-14.11-35.96-14.11 25.38 0.71 21.15 1.41c-4.23 0.71-9.87-14.8-11.28-14.1z" fill="#897269" fill-rule="evenodd" stroke="#000" stroke-linecap="round" stroke-linejoin="round" stroke-width="3"/>
  <path d="m52.834 304.77l-5.591 227.22 92.367 36.66 4.23-242.56-91.006-21.32z" fill="#a3a7ac" fill-rule="evenodd" stroke="#000" stroke-linecap="round" stroke-linejoin="round" stroke-width="3"/>
  <path d="m583.13 680.06l-47.24 59.23-9.17 19.74-7.05 21.86 78.27 33.14 3.52-29.61 7.05-22.56 8.46-21.86 15.52-20.45 7.75-10.58-57.11-28.91z" fill="#a3a7ac" fill-rule="evenodd" stroke="#000" stroke-linecap="round" stroke-linejoin="round" stroke-width="3"/>
  <path d="m639.54 711.09l-6.35 16.92-17.63 52.18-17.97 33.83-3.88-35.24 33.14-63.46 12.69-4.23z" fill="#888c92" fill-rule="evenodd" stroke="#000" stroke-linecap="round" stroke-linejoin="round" stroke-width="3"/>
  <path d="m608.87 694.61c-2.13 2.67-16.53 10.13-16.53 10.13l-10.13 21.33-24.52-15.46" fill="none" stroke="#000" stroke-width="3"/>
  <path d="m582.21 726.07l32.53 14.39" fill="none" stroke="#000" stroke-width="3"/>
  <path transform="matrix(.75758 0 0 .81579 76 80.026)" d="m331.09 444.56a8.7972 10.13 0 1 1 -17.59 0 8.7972 10.13 0 1 1 17.59 0z" fill="#897269" fill-rule="evenodd" stroke="#000" stroke-linecap="round" stroke-linejoin="round" stroke-width="3.8161"/>
  <path transform="matrix(.75758 0 0 .81579 155.17 94.688)" d="m331.09 444.56a8.7972 10.13 0 1 1 -17.59 0 8.7972 10.13 0 1 1 17.59 0z" fill="#897269" fill-rule="evenodd" stroke="#000" stroke-linecap="round" stroke-linejoin="round" stroke-width="3.8161"/>
  <path d="m304.97 506.4s16.72 30.99 29.59 33.06c10.04 1.62 41.32-21.33 41.32-21.33" fill="none" stroke="#000" stroke-linecap="round" stroke-linejoin="round" stroke-width="3"/>
  <path d="m68.111 333.93l-1.19 50.66 60.909 18.38 0.91-51.32-60.629-17.72z" fill="#b6c1b6" fill-rule="evenodd" stroke="#000" stroke-width="3"/>
  <path d="m65.731 396.35l0.418 25.46 60.371 17.85-0.16-25.58-60.629-17.73z" fill="#b6c1b6" fill-rule="evenodd" stroke="#000" stroke-width="3"/>
  <path d="m369.44 716.32l-1.03-13.2 37.48-53.39" fill="none" stroke="#000" stroke-linecap="round" stroke-linejoin="round" stroke-width="3"/>
  <path d="m320.6 888.52l3.54 21.4" fill="none" stroke="#000" stroke-linecap="round" stroke-linejoin="round" stroke-width="2.8138"/>
 </g>
</svg>
