<svg xmlns="http://www.w3.org/2000/svg" viewBox="0 0 500 500"><rect width="500" height="500" rx="48.487" fill="#1d70b8"/><g style="isolation:isolate"><g style="isolation:isolate"><path d="M92.5,436V279.5H64V255.667H92.5v-18.5q0-29,15.5-44.834T151.833,176.5A81.491,81.491,0,0,1,173,179.315l-1.667,24.852a88.568,88.568,0,0,0-16.666-1.5q-15,0-23.167,8.778t-8.167,25.162v19.06h38.5V279.5h-38.5V436Z" fill="#fff"/><path d="M225,255.667l1,22.666q20.664-26,54-26,57.164,0,57.667,64.5V436H306.833V316.667q-.167-19.5-8.916-28.834t-27.25-9.333a44.5,44.5,0,0,0-26.334,8,54.3,54.3,0,0,0-17.666,21V436H195.833V255.667Z" fill="#fff"/></g></g></svg>