<?xml version="1.0" standalone="no"?>
<!DOCTYPE svg PUBLIC "-//W3C//DTD SVG 20010904//EN"
 "http://www.w3.org/TR/2001/REC-SVG-20010904/DTD/svg10.dtd">
<svg version="1.0" xmlns="http://www.w3.org/2000/svg"
 width="500.000000pt" height="500.000000pt" viewBox="0 0 500.000000 500.000000"
 preserveAspectRatio="xMidYMid meet">
<metadata>
Created by potrace 1.11, written by Peter Selinger 2001-2013
</metadata>
<g transform="translate(0.000000,500.000000) scale(0.100000,-0.100000)"
fill="#000000" stroke="none">
<path d="M359 4982 c-121 -32 -224 -111 -293 -225 -70 -118 -66 30 -66 -2257
0 -2287 -4 -2139 66 -2257 69 -114 172 -193 293 -225 61 -16 212 -17 2141 -17
1929 0 2080 1 2141 17 121 32 224 111 293 225 70 118 66 -31 65 2264 0 1922
-1 2073 -17 2134 -32 121 -111 224 -225 293 -118 70 31 66 -2264 65 -1922 0
-2073 -1 -2134 -17z m1349 -1767 c22 -7 23 -10 17 -109 -10 -159 3 -144 -123
-138 -148 7 -206 -10 -277 -81 -74 -75 -89 -124 -89 -302 l-1 -140 193 -3 193
-2 -3 -118 -3 -117 -192 -3 -193 -2 0 -780 0 -780 -155 0 -155 0 0 780 0 780
-140 0 -140 0 0 120 0 120 139 0 138 0 7 161 c11 255 47 359 163 477 40 41 83
72 125 92 113 52 158 60 323 56 83 -2 160 -7 173 -11z m1281 -761 c141 -32
253 -123 316 -257 69 -143 68 -138 72 -884 l4 -673 -155 0 -156 0 0 623 c0
406 -4 644 -11 682 -21 117 -78 197 -168 238 -72 32 -245 36 -330 7 -104 -35
-187 -101 -256 -203 l-35 -52 0 -647 0 -648 -155 0 -155 0 0 900 0 900 144 0
143 0 7 -52 c3 -29 6 -79 6 -110 l0 -57 71 70 c81 80 213 150 314 168 33 6 71
13 85 15 41 7 191 -4 259 -20z"/>
</g>
</svg>
